<svg version="1.1" xmlns="http://www.w3.org/2000/svg" viewBox="0 0 741 289.5" width="741" height="289.5">
  <!-- svg-source:excalidraw -->
  
  <defs>
    <style class="style-fonts">
      @font-face {
        font-family: "Virgil";
        src: url("https://excalidraw.com/Virgil.woff2");
      }
      @font-face {
        font-family: "Cascadia";
        src: url("https://excalidraw.com/Cascadia.woff2");
      }
    </style>
  </defs>
  <rect x="0" y="0" width="741" height="289.5" fill="#ffffff"></rect><g stroke-linecap="round" transform="translate(10 124.5) rotate(0 120.5 61.5)"><path d="M30.75 0 M30.75 0 C72.79 -0.41, 111.87 0.62, 210.25 0 M30.75 0 C80.53 1.74, 130.14 0.95, 210.25 0 M210.25 0 C230.73 1.67, 239.5 8.63, 241 30.75 M210.25 0 C230.79 -0.57, 240.58 12.21, 241 30.75 M241 30.75 C242.15 51.32, 242.32 74.06, 241 92.25 M241 30.75 C241.9 47.67, 241.85 65.03, 241 92.25 M241 92.25 C241.38 111.15, 229.08 123.47, 210.25 123 M241 92.25 C241.14 111.39, 232.5 124.07, 210.25 123 M210.25 123 C152.42 122.61, 91.75 124.9, 30.75 123 M210.25 123 C168.7 123.07, 128.46 121.76, 30.75 123 M30.75 123 C9.63 123.4, 1.96 112.31, 0 92.25 M30.75 123 C8.01 125.15, 2.23 113.73, 0 92.25 M0 92.25 C1.53 69.94, 1.53 43.85, 0 30.75 M0 92.25 C-0.72 67.62, -0.72 43.42, 0 30.75 M0 30.75 C-1.53 11.19, 11.85 -0.5, 30.75 0 M0 30.75 C-1.54 10.46, 8.24 -0.34, 30.75 0" stroke="#1e1e1e" stroke-width="1" fill="none"></path></g><g transform="translate(95.92499923706055 161) rotate(0 34.57500076293945 25)"><text x="34.57500076293945" y="0" font-family="Virgil, Segoe UI Emoji" font-size="20px" fill="#1e1e1e" text-anchor="middle" style="white-space: pre;" direction="ltr" dominant-baseline="text-before-edge">Billable</text><text x="34.57500076293945" y="25" font-family="Virgil, Segoe UI Emoji" font-size="20px" fill="#1e1e1e" text-anchor="middle" style="white-space: pre;" direction="ltr" dominant-baseline="text-before-edge">Builder</text></g><g stroke-linecap="round" transform="translate(440 126.5) rotate(0 145.5 76.5)"><path d="M32 0 M32 0 C114.36 -1.81, 200.38 -1.66, 259 0 M32 0 C106.91 -0.33, 181.38 -1.21, 259 0 M259 0 C280.81 0.12, 289.82 12.19, 291 32 M259 0 C281.4 0.71, 292.83 10.76, 291 32 M291 32 C292.62 64.21, 292.16 98.49, 291 121 M291 32 C291.27 51.38, 291.94 72.36, 291 121 M291 121 C290.56 140.39, 282.2 154.94, 259 153 M291 121 C291.98 144.22, 281.32 152.13, 259 153 M259 153 C169.32 156.37, 83.4 155.4, 32 153 M259 153 C196.06 151.87, 133.92 153.21, 32 153 M32 153 C10.16 151.66, 0.18 140.59, 0 121 M32 153 C10.33 153.21, -0.92 144.31, 0 121 M0 121 C-0.76 100.66, -1.08 77.9, 0 32 M0 121 C0.39 97.73, -0.56 72.61, 0 32 M0 32 C-1.21 12.19, 10.26 1.94, 32 0 M0 32 C-0.29 10.11, 8.75 0.64, 32 0" stroke="#1e1e1e" stroke-width="1" fill="none"></path></g><g transform="translate(538.3250007629395 178) rotate(0 47.17499923706055 25)"><text x="47.17499923706055" y="0" font-family="Virgil, Segoe UI Emoji" font-size="20px" fill="#1e1e1e" text-anchor="middle" style="white-space: pre;" direction="ltr" dominant-baseline="text-before-edge">Rule</text><text x="47.17499923706055" y="25" font-family="Virgil, Segoe UI Emoji" font-size="20px" fill="#1e1e1e" text-anchor="middle" style="white-space: pre;" direction="ltr" dominant-baseline="text-before-edge">Controller</text></g><g stroke-linecap="round" transform="translate(500 101.5) rotate(0 86 13)"><path d="M6.5 0 M6.5 0 C46.88 -2.27, 87.74 -0.92, 165.5 0 M6.5 0 C70.75 2.52, 133.55 2.37, 165.5 0 M165.5 0 C170.69 -0.76, 173.79 3.35, 172 6.5 M165.5 0 C171.9 -1.63, 174.19 3.96, 172 6.5 M172 6.5 C171.65 10.6, 170.98 15.92, 172 19.5 M172 6.5 C172.03 10.87, 171.87 16.44, 172 19.5 M172 19.5 C171.2 25.56, 168.72 27.97, 165.5 26 M172 19.5 C170.61 23.96, 171.45 25.76, 165.5 26 M165.5 26 C114.84 25.6, 64.92 23.69, 6.5 26 M165.5 26 C126.4 28.18, 87.58 26.97, 6.5 26 M6.5 26 C0.5 26.56, -0.91 24.44, 0 19.5 M6.5 26 C3.45 26.88, -0.51 26.1, 0 19.5 M0 19.5 C-0.99 15.25, -0.03 11.39, 0 6.5 M0 19.5 C0.2 14.37, 0.51 10.16, 0 6.5 M0 6.5 C0.23 2.1, 2.76 -1.71, 6.5 0 M0 6.5 C0.28 0.61, 2.33 1.25, 6.5 0" stroke="#1e1e1e" stroke-width="1" fill="none"></path></g><g transform="translate(564 103.5) rotate(0 21.741666793823242 12.5)"><text x="0" y="0" font-family="Virgil, Segoe UI Emoji" font-size="20px" fill="#1e1e1e" text-anchor="start" style="white-space: pre;" direction="ltr" dominant-baseline="text-before-edge">Http</text></g><g stroke-linecap="round"><g transform="translate(114 119.5) rotate(0 264.6777622781694 -49.202048077202676)"><path d="M-0.25 -0.09 C56.33 -16.59, 251.18 -94.01, 339.5 -98.13 C427.81 -102.25, 498.15 -37.01, 529.61 -24.79 M1.81 -1.18 C58.19 -17.65, 250.39 -93.4, 338.28 -97.18 C426.17 -100.97, 497.53 -36.07, 529.16 -23.88" stroke="#1e1e1e" stroke-width="1" fill="none"></path></g><g transform="translate(114 119.5) rotate(0 264.6777622781694 -49.202048077202676)"><path d="M499.44 -29.73 C506.65 -26.3, 516.13 -27.07, 527.89 -25.72 M499.42 -29.16 C506.45 -28.03, 515.86 -26.52, 530.15 -23.01" stroke="#1e1e1e" stroke-width="1" fill="none"></path></g><g transform="translate(114 119.5) rotate(0 264.6777622781694 -49.202048077202676)"><path d="M509.58 -47.57 C513.86 -38.79, 520.29 -34.19, 527.89 -25.72 M509.57 -47 C513.78 -41.32, 520.55 -35.17, 530.15 -23.01" stroke="#1e1e1e" stroke-width="1" fill="none"></path></g></g><mask></mask><g stroke-linecap="round"><g transform="translate(625 94.5) rotate(0 -193.90464176312088 -2.797490320122307)"><path d="M-0.63 -0.56 C-31.77 -5.85, -122.58 -35.84, -187.01 -31.37 C-251.43 -26.91, -353.83 16.55, -387.17 26.23" stroke="#1e1e1e" stroke-width="1.5" fill="none" stroke-dasharray="8 9"></path></g><g transform="translate(625 94.5) rotate(0 -193.90464176312088 -2.797490320122307)"><path d="M-364.83 7.29 C-369.35 13.88, -376.56 19.4, -386.03 25.95" stroke="#1e1e1e" stroke-width="1.5" fill="none"></path></g><g transform="translate(625 94.5) rotate(0 -193.90464176312088 -2.797490320122307)"><path d="M-358.1 26.68 C-364.58 27.78, -373.69 27.83, -386.03 25.95" stroke="#1e1e1e" stroke-width="1.5" fill="none"></path></g></g><mask></mask><g mask="url(#mask-DVDaXOlcyRTKt2vx2vD3r)" stroke-linecap="round"><g transform="translate(428 189.5) rotate(0 -80.33394163841848 0.9931719018751721)"><path d="M-0.67 0.72 C-27.61 1.2, -135.03 1.86, -161.85 1.93 M1.19 0.06 C-25.36 0.3, -132.27 -0.12, -159.59 0.3" stroke="#1e1e1e" stroke-width="2" fill="none"></path></g><g transform="translate(428 189.5) rotate(0 -80.33394163841848 0.9931719018751721)"><path d="M-130.24 -11.51 C-137.91 -8.37, -147.17 -3.41, -159.34 -0.23 M-130.95 -11.05 C-138.98 -6.75, -146.72 -4.37, -159.82 0.92" stroke="#1e1e1e" stroke-width="2" fill="none"></path></g><g transform="translate(428 189.5) rotate(0 -80.33394163841848 0.9931719018751721)"><path d="M-130.15 9.01 C-137.68 6.37, -146.97 5.54, -159.34 -0.23 M-130.85 9.47 C-138.93 7.92, -146.7 4.44, -159.82 0.92" stroke="#1e1e1e" stroke-width="2" fill="none"></path></g></g><mask id="mask-DVDaXOlcyRTKt2vx2vD3r"><rect x="0" y="0" fill="#fff" width="689" height="290.5"></rect><rect x="324.1666660308838" y="165" fill="#000" width="46.66666793823242" height="50" opacity="1"></rect></mask><g transform="translate(324.1666660308838 165) rotate(0 23.49939233069773 25.493171901875172)"><text x="23.33333396911621" y="0" font-family="Virgil, Segoe UI Emoji" font-size="20px" fill="#1e1e1e" text-anchor="middle" style="white-space: pre;" direction="ltr" dominant-baseline="text-before-edge">Rule</text><text x="23.33333396911621" y="25" font-family="Virgil, Segoe UI Emoji" font-size="20px" fill="#1e1e1e" text-anchor="middle" style="white-space: pre;" direction="ltr" dominant-baseline="text-before-edge">topic</text></g><g transform="translate(341 207.5) rotate(0 3.7916667461395264 17.5)"><text x="0" y="0" font-family="Virgil, Segoe UI Emoji" font-size="28px" fill="#2f9e44" text-anchor="start" style="white-space: pre;" direction="ltr" dominant-baseline="text-before-edge">1</text></g><g transform="translate(329.2083332538605 10) rotate(0 9.966666221618652 17.5)"><text x="0" y="0" font-family="Virgil, Segoe UI Emoji" font-size="28px" fill="#2f9e44" text-anchor="start" style="white-space: pre;" direction="ltr" dominant-baseline="text-before-edge">2</text></g><g transform="translate(427.03333377838135 62) rotate(0 9.533333778381348 17.5)"><text x="0" y="0" font-family="Virgil, Segoe UI Emoji" font-size="28px" fill="#2f9e44" text-anchor="start" style="white-space: pre;" direction="ltr" dominant-baseline="text-before-edge">3</text></g></svg>